<svg xmlns="http://www.w3.org/2000/svg" width="1500" height="500" viewBox="0 0 1500 500">
  <defs>
    <linearGradient id="header-bg" x1="0" y1="0" x2="1" y2="1">
      <stop offset="0" stop-color="#040b07"/>
      <stop offset="0.52" stop-color="#07110b"/>
      <stop offset="1" stop-color="#0f1e14"/>
    </linearGradient>
    <radialGradient id="header-halo" cx="50%" cy="50%" r="50%">
      <stop offset="0" stop-color="#00c805" stop-opacity="0.14"/>
      <stop offset="1" stop-color="#00c805" stop-opacity="0"/>
    </radialGradient>
    <filter id="header-glow" x="-100%" y="-100%" width="300%" height="300%">
      <feGaussianBlur stdDeviation="8" result="blur"/>
      <feMerge><feMergeNode in="blur"/><feMergeNode in="SourceGraphic"/></feMerge>
    </filter>
  </defs>
  <rect width="1500" height="500" fill="url(#header-bg)"/>
  <ellipse cx="750" cy="226" rx="520" ry="310" fill="url(#header-halo)"/>
  <path d="M0 1h1500M0 499h1500" stroke="#c6e0c9" stroke-opacity="0.12"/>
  <g transform="translate(703 52) scale(2.14)" fill="none" stroke="#72ff78" stroke-linecap="round" stroke-linejoin="round">
    <path d="M5 11.5 22 2l17 9.5v21L22 42 5 32.5z" stroke-width="1.35"/>
    <path d="M13 16.2 22 11l9 5.2v10.6L22 32l-9-5.2z" stroke-width="0.72" stroke-opacity="0.62"/>
    <circle cx="22" cy="21.5" r="3.5" fill="#72ff78" stroke="none" filter="url(#header-glow)"/>
  </g>
  <g text-anchor="middle" font-family="Arial, Helvetica, sans-serif">
    <text x="750" y="198" fill="#f4f8f3" font-size="26" font-weight="800" letter-spacing="6">RWA <tspan fill="#72ff78">PROTOCOL</tspan></text>
    <text x="750" y="305" fill="#f4f8f3" font-size="54" font-weight="800" letter-spacing="-1.2">MAKE THE OBJECT MACHINE-READABLE.</text>
  </g>
  <rect x="570" y="363" width="360" height="3" rx="1.5" fill="#72ff78" opacity="0.82"/>
</svg>
